<?xml version="1.0" encoding="utf-8"?>
<!-- Generator: Adobe Illustrator 17.0.2, SVG Export Plug-In . SVG Version: 6.00 Build 0)  -->
<!DOCTYPE svg PUBLIC "-//W3C//DTD SVG 1.1//EN" "http://www.w3.org/Graphics/SVG/1.1/DTD/svg11.dtd">
<svg version="1.1" id="Phone_1_" xmlns="http://www.w3.org/2000/svg" xmlns:xlink="http://www.w3.org/1999/xlink" x="0px" y="0px"
	 width="19px" height="18px" viewBox="0 0 19 18" enable-background="new 0 0 19 18" xml:space="preserve">
<g id="Phone">
	<g>
		<path fill-rule="evenodd" clip-rule="evenodd" fill="#8A8C9D" d="M17.484,10.726L14.624,9.3c-0.7-0.35-1.605-0.231-2.186,0.287
			l-0.334,0.297c-0.324,0.289-0.829,0.356-1.221,0.159C9.909,9.556,9.128,8.799,8.626,7.855C8.42,7.467,8.486,6.992,8.791,6.671
			l0.306-0.323c0.328-0.347,0.508-0.796,0.508-1.265c0-0.296-0.074-0.591-0.213-0.854L7.921,1.455C7.445,0.558,6.505,0,5.467,0
			c-0.61,0-1.188,0.19-1.672,0.548l-0.87,0.644C1.561,2.201,1,3.944,1.529,5.529c1.762,5.273,6.032,9.526,11.423,11.376
			c0.435,0.149,0.89,0.225,1.352,0.225c1.08,0,2.132-0.426,2.889-1.169l0.995-0.977c0.514-0.505,0.797-1.172,0.797-1.879
			C18.985,12.099,18.41,11.187,17.484,10.726z M17.01,13.857l-0.995,0.977c-0.639,0.628-1.651,0.854-2.511,0.558
			C8.596,13.708,4.708,9.836,3.103,5.035C2.79,4.097,3.122,3.065,3.93,2.467L4.8,1.823c0.192-0.142,0.423-0.218,0.667-0.218
			c0.415,0,0.791,0.224,0.982,0.584l1.47,2.773c0.02,0.038,0.03,0.078,0.03,0.121c0,0.085-0.04,0.145-0.073,0.18L7.571,5.585
			C6.799,6.399,6.633,7.607,7.155,8.59c0.66,1.243,1.688,2.239,2.971,2.88c0.996,0.498,2.275,0.33,3.098-0.403l0.334-0.297
			c0.054-0.048,0.194-0.099,0.31-0.041l2.86,1.426c0.372,0.185,0.602,0.55,0.602,0.953C17.329,13.388,17.216,13.655,17.01,13.857z"
			/>
	</g>
</g>
</svg>
