<?xml version="1.0" encoding="utf-8"?>
<!-- Generator: Adobe Illustrator 17.0.2, SVG Export Plug-In . SVG Version: 6.00 Build 0)  -->
<!DOCTYPE svg PUBLIC "-//W3C//DTD SVG 1.1//EN" "http://www.w3.org/Graphics/SVG/1.1/DTD/svg11.dtd">
<svg version="1.1" id="Mail_1_" xmlns="http://www.w3.org/2000/svg" xmlns:xlink="http://www.w3.org/1999/xlink" x="0px" y="0px"
	 width="21px" height="17px" viewBox="0 0 21 17" enable-background="new 0 0 21 17" xml:space="preserve">
<g id="Mail">
	<g>
		<path fill-rule="evenodd" clip-rule="evenodd" fill="#808395" d="M18.75,0H1.25C0.56,0,0,0.586,0,1.308v14.385
			C0,16.414,0.56,17,1.25,17h17.5c0.69,0,1.25-0.586,1.25-1.308V1.308C20,0.586,19.44,0,18.75,0z M18.125,15.038H1.875V5.035
			l7.321,6.427c0.233,0.204,0.518,0.307,0.804,0.307s0.571-0.102,0.803-0.307l7.322-6.427V15.038z M18.125,2.475L10,9.607
			L1.875,2.475V1.961h16.25V2.475z"/>
	</g>
</g>
</svg>
