<?xml version="1.0" encoding="utf-8"?>
<!-- Generator: Adobe Illustrator 17.0.2, SVG Export Plug-In . SVG Version: 6.00 Build 0)  -->
<!DOCTYPE svg PUBLIC "-//W3C//DTD SVG 1.1//EN" "http://www.w3.org/Graphics/SVG/1.1/DTD/svg11.dtd">
<svg version="1.1" id="twitter_1_" xmlns="http://www.w3.org/2000/svg" xmlns:xlink="http://www.w3.org/1999/xlink" x="0px" y="0px"
	 width="21px" height="19px" viewBox="0 0 21 19" enable-background="new 0 0 21 19" xml:space="preserve">
<g id="twitter">
	<g>
		<path fill-rule="evenodd" clip-rule="evenodd" fill="#8F91A1" d="M18.562,3.825V3.815c0.183-0.074,0.327-0.232,0.473-0.349
			c0.656-0.527,1.083-1.22,1.398-2.107c-0.179,0.102-0.357,0.204-0.536,0.306c-0.551,0.292-1.487,0.711-2.207,0.775
			C16.841,1.633,15.953,1,14.284,1.031c-0.175,0.022-0.35,0.044-0.526,0.065c-0.34,0.077-0.664,0.174-0.956,0.306
			c-1.222,0.552-2.055,1.583-2.438,3.013c-0.152,0.569-0.215,1.519-0.021,2.107C9.653,6.521,8.986,6.408,8.408,6.26
			C6.133,5.677,4.716,4.889,3.143,3.607C2.681,3.231,2.228,2.804,1.86,2.33C1.742,2.177,1.555,2.043,1.471,1.86
			C1.464,1.857,1.457,1.853,1.45,1.849C1.268,2.202,1.096,2.584,0.988,3.018C0.562,4.725,1.236,6.158,1.955,7.09
			c0.218,0.282,0.571,0.457,0.788,0.72h0.021C2.601,7.873,2.318,7.786,2.176,7.756C1.84,7.683,1.553,7.617,1.272,7.494
			C1.125,7.421,0.977,7.348,0.83,7.275c-0.007,1.886,0.907,3.112,2.029,3.843c0.365,0.238,0.877,0.559,1.408,0.589
			c-0.285,0.25-1.501,0.135-1.923,0.087c0.528,1.416,1.339,2.359,2.733,2.871c0.359,0.132,0.798,0.249,1.282,0.24
			c-0.257,0.318-0.805,0.577-1.167,0.797c-0.746,0.454-1.611,0.749-2.586,0.972c-0.391,0.089-0.806,0.071-1.23,0.142
			C0.909,16.895,0.419,16.775,0,16.762c0.126,0.08,0.252,0.16,0.378,0.24c0.384,0.244,0.786,0.457,1.219,0.655
			c0.781,0.356,1.612,0.624,2.533,0.862c1.857,0.48,4.476,0.264,6.096-0.262c4.513-1.465,7.364-4.885,8.44-9.924
			c0.185-0.867,0.212-1.851,0.2-2.882c0.224-0.186,0.448-0.371,0.673-0.557c0.556-0.464,1.076-1.11,1.461-1.747V3.138
			C20.268,3.376,19.497,3.815,18.562,3.825z"/>
	</g>
</g>
</svg>
