<?xml version="1.0" encoding="utf-8"?>
<!-- Generator: Adobe Illustrator 17.0.2, SVG Export Plug-In . SVG Version: 6.00 Build 0)  -->
<!DOCTYPE svg PUBLIC "-//W3C//DTD SVG 1.1//EN" "http://www.w3.org/Graphics/SVG/1.1/DTD/svg11.dtd">
<svg version="1.1" id="dribbble_1_" xmlns="http://www.w3.org/2000/svg" xmlns:xlink="http://www.w3.org/1999/xlink" x="0px"
	 y="0px" width="19px" height="20px" viewBox="0 0 19 20" enable-background="new 0 0 19 20" xml:space="preserve">
<g id="dribbble">
	<g>
		<path fill-rule="evenodd" clip-rule="evenodd" fill="#8F91A1" d="M18.808,8.226c-0.124-0.581-0.309-1.154-0.55-1.701
			c-0.236-0.537-0.529-1.054-0.869-1.537c-0.337-0.479-0.724-0.929-1.151-1.338c-0.427-0.41-0.896-0.781-1.395-1.104
			C14.34,2.219,13.8,1.939,13.242,1.711c-0.57-0.23-1.166-0.409-1.772-0.527C10.849,1.062,10.21,1,9.571,1
			C8.932,1,8.293,1.062,7.672,1.184C7.066,1.302,6.47,1.481,5.9,1.711C5.342,1.939,4.802,2.219,4.298,2.546
			C3.799,2.869,3.33,3.241,2.903,3.651C2.477,4.059,2.09,4.51,1.753,4.989c-0.34,0.483-0.633,1-0.869,1.537
			c-0.241,0.547-0.426,1.119-0.55,1.701c-0.127,0.595-0.191,1.208-0.191,1.821c0,0.614,0.064,1.227,0.191,1.823
			c0.124,0.581,0.309,1.154,0.55,1.7c0.236,0.536,0.529,1.055,0.869,1.538c0.337,0.479,0.724,0.929,1.15,1.338
			c0.427,0.409,0.896,0.78,1.395,1.104c0.504,0.327,1.043,0.608,1.602,0.834c0.57,0.232,1.166,0.408,1.772,0.527
			c0.621,0.123,1.26,0.184,1.899,0.184c0.638,0,1.277-0.061,1.898-0.184c0.606-0.119,1.202-0.296,1.772-0.527
			c0.559-0.227,1.098-0.508,1.602-0.834c0.499-0.324,0.969-0.695,1.395-1.104c0.426-0.41,0.813-0.859,1.151-1.338
			c0.34-0.483,0.633-1.001,0.869-1.538c0.241-0.546,0.426-1.119,0.55-1.7C18.936,11.274,19,10.661,19,10.047
			C19,9.434,18.936,8.821,18.808,8.226z M9.571,2.321c2.039,0,3.899,0.729,5.318,1.928c-0.02,0.03-1.167,1.705-4.206,2.798
			C9.307,4.62,7.795,2.692,7.674,2.539C8.282,2.397,8.917,2.321,9.571,2.321z M7.643,2.545c0,0.001-0.001,0.001-0.001,0.001
			S7.632,2.549,7.617,2.552C7.625,2.55,7.634,2.548,7.643,2.545z M6.135,3.059c0.107,0.138,1.596,2.075,2.99,4.452
			C5.259,8.497,1.904,8.458,1.691,8.455C2.214,6.062,3.89,4.077,6.135,3.059z M3.582,15.211c-1.282-1.369-2.063-3.179-2.063-5.164
			c0-0.082,0.004-0.163,0.007-0.244c0.142,0.003,4.121,0.089,8.267-1.101c0.231,0.433,0.451,0.874,0.653,1.313
			c-0.107,0.029-0.212,0.059-0.317,0.092c-4.346,1.348-6.55,5.1-6.55,5.1S3.581,15.209,3.582,15.211z M9.571,17.774
			c-1.867,0-3.582-0.615-4.948-1.638c0,0-0.001,0.003-0.001,0.003s-0.074-0.053-0.18-0.135c0.059,0.047,0.122,0.087,0.182,0.132
			c0.015-0.031,1.565-3.235,6.318-4.824c0.018-0.006,0.035-0.011,0.053-0.016c1.133,2.825,1.601,5.191,1.72,5.867
			C11.749,17.556,10.686,17.774,9.571,17.774z M14.071,16.456c-0.082-0.467-0.511-2.734-1.567-5.519
			c2.6-0.399,4.852,0.285,5.018,0.337C17.163,13.427,15.879,15.284,14.071,16.456z M12.012,9.717
			c-0.057-0.132-0.114-0.265-0.174-0.399c-0.168-0.378-0.348-0.753-0.535-1.121c3.18-1.245,4.471-3.037,4.486-3.058
			c1.129,1.316,1.813,2.997,1.831,4.831C17.504,9.946,14.779,9.384,12.012,9.717z"/>
	</g>
</g>
</svg>
