<?xml version="1.0" encoding="utf-8"?>
<!-- Generator: Adobe Illustrator 17.0.2, SVG Export Plug-In . SVG Version: 6.00 Build 0)  -->
<!DOCTYPE svg PUBLIC "-//W3C//DTD SVG 1.1//EN" "http://www.w3.org/Graphics/SVG/1.1/DTD/svg11.dtd">
<svg version="1.1" id="facebook_1_" xmlns="http://www.w3.org/2000/svg" xmlns:xlink="http://www.w3.org/1999/xlink" x="0px"
	 y="0px" width="9px" height="19px" viewBox="0 0 9 19" enable-background="new 0 0 9 19" xml:space="preserve">
<g id="facebook">
	<g>
		<path fill-rule="evenodd" clip-rule="evenodd" fill="#8F91A1" d="M5.936,7.231C5.962,6.292,5.785,4.986,6.084,4.54
			c0.548-0.817,2.734-0.604,2.734-0.604s0-1.855,0-2.89c-3.45,0-4.578-0.141-5.762,1.031C2.003,3.118,1.97,5.165,1.883,7.231H0.193
			v2.825h1.71c-0.001,2.946,0.001,6.176,0,8.944c1.285,0,4.017,0,4.017,0v-8.979c0,0,1.489,0,2.315,0
			c0.18-0.95,0.356-1.693,0.601-2.79H5.936z"/>
	</g>
</g>
</svg>
