<?xml version="1.0" encoding="utf-8"?>
<!-- Generator: Adobe Illustrator 17.0.2, SVG Export Plug-In . SVG Version: 6.00 Build 0)  -->
<!DOCTYPE svg PUBLIC "-//W3C//DTD SVG 1.1//EN" "http://www.w3.org/Graphics/SVG/1.1/DTD/svg11.dtd">
<svg version="1.1" id="keypad_copie_4_1_" xmlns="http://www.w3.org/2000/svg" xmlns:xlink="http://www.w3.org/1999/xlink" x="0px"
	 y="0px" width="33px" height="9px" viewBox="0 0 33 9" enable-background="new 0 0 33 9" xml:space="preserve">
<g id="keypad_copie_4">
	<g>
		<path fill-rule="evenodd" clip-rule="evenodd" fill="#C1C1D3" d="M4.944,0.867c-2.303,0-4.171,1.783-4.171,3.983
			c0,2.2,1.867,3.984,4.171,3.984c2.302,0,4.17-1.784,4.17-3.984C9.114,2.649,7.247,0.867,4.944,0.867z M16.76,0.867
			c-2.303,0-4.171,1.783-4.171,3.983c0,2.2,1.867,3.984,4.171,3.984c2.302,0,4.17-1.784,4.17-3.984
			C20.93,2.649,19.063,0.867,16.76,0.867z M28.576,0.867c-2.303,0-4.17,1.783-4.17,3.983c0,2.2,1.867,3.984,4.17,3.984
			c2.303,0,4.171-1.784,4.171-3.984C32.747,2.649,30.879,0.867,28.576,0.867z"/>
	</g>
</g>
</svg>
