<?xml version="1.0" encoding="utf-8"?>
<!-- Generator: Adobe Illustrator 17.0.2, SVG Export Plug-In . SVG Version: 6.00 Build 0)  -->
<!DOCTYPE svg PUBLIC "-//W3C//DTD SVG 1.1//EN" "http://www.w3.org/Graphics/SVG/1.1/DTD/svg11.dtd">
<svg version="1.1" id="heart_copie_1_" xmlns="http://www.w3.org/2000/svg" xmlns:xlink="http://www.w3.org/1999/xlink" x="0px"
	 y="0px" width="46px" height="40px" viewBox="0 0 46 40" enable-background="new 0 0 46 40" xml:space="preserve">
<g id="heart_copie">
	<g>
		<path fill-rule="evenodd" clip-rule="evenodd" fill="#FFFFFF" d="M42.293,3.672C39.902,1.304,36.724,0,33.344,0
			c-3.381,0-6.09,1.202-8.48,3.57c-0.001,0.001-0.003,0.002-0.004,0.003c0,0.001-0.001,0.001-0.001,0.001L23.5,5.269l-1.359-1.592
			c-0.001-0.002-0.003-0.003-0.004-0.004c0,0-0.001,0-0.001-0.001C19.746,1.304,17.037,0,13.656,0c-3.381,0-6.559,1.304-8.949,3.672
			C2.317,6.039,1,9.187,1,12.535c0,3.347,1.315,6.493,3.703,8.861l16.8,16.78C22.031,38.703,22.75,39,23.5,39
			c0.75,0,1.469-0.297,1.997-0.824l16.799-16.779C44.684,19.03,46,15.883,46,12.536C46,9.188,44.684,6.039,42.293,3.672z"/>
	</g>
</g>
</svg>
