<?xml version="1.0" encoding="utf-8"?>
<!-- Generator: Adobe Illustrator 17.0.2, SVG Export Plug-In . SVG Version: 6.00 Build 0)  -->
<!DOCTYPE svg PUBLIC "-//W3C//DTD SVG 1.1//EN" "http://www.w3.org/Graphics/SVG/1.1/DTD/svg11.dtd">
<svg version="1.1" id="edit_copie_1_" xmlns="http://www.w3.org/2000/svg" xmlns:xlink="http://www.w3.org/1999/xlink" x="0px"
	 y="0px" width="16px" height="17px" viewBox="0 0 16 17" enable-background="new 0 0 16 17" xml:space="preserve">
<g id="edit_copie">
	<g>
		<path fill-rule="evenodd" clip-rule="evenodd" fill="#C1C1D3" d="M15.194,5.819h-5.25V0.727C9.945,0.325,9.609,0,9.195,0H6.946
			c-0.415,0-0.75,0.325-0.75,0.727v5.092H0.75C0.336,5.819,0,6.144,0,6.546v2.182c0,0.402,0.336,0.727,0.75,0.727h5.447v5.819
			c0,0.402,0.335,0.727,0.75,0.727h2.249c0.414,0,0.75-0.325,0.75-0.727V9.454h5.25c0.414,0,0.75-0.326,0.75-0.727V6.546
			C15.944,6.144,15.609,5.819,15.194,5.819z"/>
	</g>
</g>
</svg>
