<?xml version="1.0" encoding="utf-8"?>
<!-- Generator: Adobe Illustrator 17.0.2, SVG Export Plug-In . SVG Version: 6.00 Build 0)  -->
<!DOCTYPE svg PUBLIC "-//W3C//DTD SVG 1.1//EN" "http://www.w3.org/Graphics/SVG/1.1/DTD/svg11.dtd">
<svg version="1.1" xmlns="http://www.w3.org/2000/svg" xmlns:xlink="http://www.w3.org/1999/xlink" x="0px" y="0px" width="37px"
	 height="41px" viewBox="0 0 37 41" enable-background="new 0 0 37 41" xml:space="preserve">
<g id="Forme_321_copie_2_1_" enable-background="new    ">
	<g id="Forme_321_copie_2">
		<g>
			<polygon fill-rule="evenodd" clip-rule="evenodd" fill="#FFFFFF" points="24.891,2.421 7.891,1.426 5.891,3.416 2.891,5.406 
				1.891,11.377 1.891,34.264 3.891,37.25 14.891,38.245 30.891,37.25 33.891,33.269 33.891,11.377 			"/>
		</g>
	</g>
</g>
<g id="doc_copie_2_1_" enable-background="new    ">
	<g id="doc_copie_2">
		<g>
			<path fill-rule="evenodd" clip-rule="evenodd" fill="#6DB221" d="M18.286,11.972h-6.643v2.177h6.643V11.972z M18.286,7.619
				h-6.643v2.177h6.643V7.619z M11.643,27.21h17.714v-2.177H11.643V27.21z M26.036,0H8.321C6.487,0,5,1.462,5,3.265v28.299
				c0,1.803,1.487,3.265,3.321,3.265h24.357c1.834,0,3.321-1.462,3.321-3.265V9.796L26.036,0z M26.036,3.265l6.643,6.531H28.25
				c-1.223,0-2.214-0.975-2.214-2.177V3.265z M33.786,30.475c0,1.202-0.991,2.177-2.214,2.177H9.429
				c-1.223,0-2.214-0.975-2.214-2.177V4.354c0-1.202,0.991-2.177,2.214-2.177h14.393v6.531c0,1.803,1.487,3.265,3.321,3.265h6.643
				V30.475z M11.643,18.503h17.714v-2.177H11.643V18.503z M11.643,22.857h17.714V20.68H11.643V22.857z"/>
		</g>
	</g>
</g>
<g id="copy_copie_2_1_" enable-background="new    ">
	<g id="copy_copie_2">
		<g>
			<path fill-rule="evenodd" clip-rule="evenodd" fill="#6DB221" d="M29.333,36.441c0,0.615-0.551,0.711-1.358,0.71
				c-0.374-0.012-0.794-0.021-1.309-0.021H5.333c-1.473,0-2.667-1.2-2.667-2.679V10.339c0-1.48-0.247-2.679,0.667-2.679V4.981H3
				c-2.21,0-3,1.8-3,4.019v26.791c0,2.219,1.79,4.019,4,4.019h24c2.21,0,4,0.191,4-2.029v-1.339H29.333z"/>
		</g>
	</g>
</g>
</svg>
