<?xml version="1.0" encoding="utf-8"?>
<!-- Generator: Adobe Illustrator 17.0.2, SVG Export Plug-In . SVG Version: 6.00 Build 0)  -->
<!DOCTYPE svg PUBLIC "-//W3C//DTD SVG 1.1//EN" "http://www.w3.org/Graphics/SVG/1.1/DTD/svg11.dtd">
<svg version="1.1" xmlns="http://www.w3.org/2000/svg" xmlns:xlink="http://www.w3.org/1999/xlink" x="0px" y="0px" width="38px"
	 height="38px" viewBox="0 0 38 38" enable-background="new 0 0 38 38" xml:space="preserve">
<g id="Rectangle_14_1_" enable-background="new    ">
	<g id="Rectangle_14">
		<g>
			<polygon fill-rule="evenodd" clip-rule="evenodd" fill="#FFFFFF" points="0,1.984 0,35.718 36.646,34.664 36.646,3.039 			"/>
		</g>
	</g>
</g>
<g id="calc_copie_2_1_" enable-background="new    ">
	<g id="calc_copie_2">
		<g>
			<path fill-rule="evenodd" clip-rule="evenodd" fill="#4B5184" d="M15.031,10.406h-2.312V8.094c0-0.638-0.518-1.156-1.156-1.156
				c-0.639,0-1.156,0.518-1.156,1.156v2.313H8.094c-0.638,0-1.156,0.518-1.156,1.156c0,0.638,0.518,1.156,1.156,1.156h2.312v2.313
				c0,0.638,0.518,1.156,1.156,1.156c0.639,0,1.156-0.518,1.156-1.156v-2.313h2.312c0.639,0,1.156-0.518,1.156-1.156
				C16.188,10.924,15.67,10.406,15.031,10.406z M14.702,22.298c-0.434-0.434-1.136-0.434-1.57,0l-1.57,1.57l-1.57-1.57
				c-0.434-0.434-1.136-0.434-1.57,0c-0.433,0.433-0.433,1.136,0,1.57l1.57,1.57l-1.57,1.57c-0.433,0.433-0.433,1.136,0,1.57
				c0.433,0.433,1.136,0.433,1.57,0l1.57-1.57l1.57,1.57c0.434,0.433,1.136,0.433,1.57,0c0.434-0.434,0.434-1.136,0-1.57l-1.57-1.57
				l1.57-1.57C15.136,23.434,15.136,22.732,14.702,22.298z M28.906,10.406h-6.937c-0.639,0-1.156,0.518-1.156,1.156
				c0,0.638,0.518,1.156,1.156,1.156h6.937c0.639,0,1.156-0.518,1.156-1.156C30.062,10.924,29.545,10.406,28.906,10.406z M33.531,0
				H3.469C1.553,0,0,1.553,0,3.469v30.062C0,35.447,1.553,37,3.469,37h30.062C35.447,37,37,35.447,37,33.531V3.469
				C37,1.553,35.447,0,33.531,0z M34.688,32.375c0,1.277-1.035,2.313-2.312,2.313H4.625c-1.277,0-2.313-1.035-2.313-2.313V4.625
				c0-1.277,1.035-2.313,2.313-2.313h27.75c1.277,0,2.312,1.035,2.312,2.313V32.375z M28.906,21.969h-6.937
				c-0.639,0-1.156,0.518-1.156,1.156c0,0.639,0.518,1.156,1.156,1.156h6.937c0.639,0,1.156-0.518,1.156-1.156
				C30.062,22.487,29.545,21.969,28.906,21.969z M28.906,26.594h-6.937c-0.639,0-1.156,0.518-1.156,1.156
				c0,0.638,0.518,1.156,1.156,1.156h6.937c0.639,0,1.156-0.518,1.156-1.156C30.062,27.111,29.545,26.594,28.906,26.594z"/>
		</g>
	</g>
</g>
</svg>
