<?xml version="1.0" encoding="utf-8"?>
<!-- Generator: Adobe Illustrator 17.0.2, SVG Export Plug-In . SVG Version: 6.00 Build 0)  -->
<!DOCTYPE svg PUBLIC "-//W3C//DTD SVG 1.1//EN" "http://www.w3.org/Graphics/SVG/1.1/DTD/svg11.dtd">
<svg version="1.1" id="cloud_1_" xmlns="http://www.w3.org/2000/svg" xmlns:xlink="http://www.w3.org/1999/xlink" x="0px" y="0px"
	 width="52px" height="34px" viewBox="0 0 52 34" enable-background="new 0 0 52 34" xml:space="preserve">
<g id="cloud">
	<g>
		<path fill-rule="evenodd" clip-rule="evenodd" fill="#FFFFFF" d="M40.908,14.121c0.003-0.126,0.018-0.248,0.018-0.375
			C40.927,6.984,35.49,1.5,28.783,1.5c-4.832,0-8.993,2.854-10.948,6.974c-0.845-0.429-1.797-0.676-2.808-0.676
			c-3.102,0-5.671,2.275-6.173,5.26C5.161,14.336,2.5,17.861,2.5,22.02c0,5.233,4.206,9.474,9.393,9.48h29.033v-0.002
			c4.739-0.025,8.573-3.903,8.573-8.687C49.5,18.02,45.657,14.136,40.908,14.121z"/>
	</g>
	<g>
		<path fill="none" stroke="#4B5184" stroke-width="3" stroke-miterlimit="100" d="M40.908,14.121
			c0.003-0.126,0.018-0.248,0.018-0.375C40.927,6.984,35.49,1.5,28.783,1.5c-4.832,0-8.993,2.854-10.948,6.974
			c-0.845-0.429-1.797-0.676-2.808-0.676c-3.102,0-5.671,2.275-6.173,5.26C5.161,14.336,2.5,17.861,2.5,22.02
			c0,5.233,4.206,9.474,9.393,9.48h29.033v-0.002c4.739-0.025,8.573-3.903,8.573-8.687C49.5,18.02,45.657,14.136,40.908,14.121z"/>
	</g>
</g>
</svg>
