<?xml version="1.0" encoding="utf-8"?>
<!-- Generator: Adobe Illustrator 17.0.2, SVG Export Plug-In . SVG Version: 6.00 Build 0)  -->
<!DOCTYPE svg PUBLIC "-//W3C//DTD SVG 1.1//EN" "http://www.w3.org/Graphics/SVG/1.1/DTD/svg11.dtd">
<svg version="1.1" xmlns="http://www.w3.org/2000/svg" xmlns:xlink="http://www.w3.org/1999/xlink" x="0px" y="0px" width="33px"
	 height="35px" viewBox="0 0 33 35" enable-background="new 0 0 33 35" xml:space="preserve">
<g id="Forme_322_1_" enable-background="new    ">
	<g id="Forme_322">
		<g>
			<polygon fill-rule="evenodd" clip-rule="evenodd" fill="#FFFFFF" points="21,1 8,1 2,2 2,30 3,33 9,34 27,34 31,33 31,10 			"/>
		</g>
	</g>
</g>
<g id="_x24__1_" enable-background="new    ">
	<g id="_x24_">
		<g>
			<path fill-rule="evenodd" clip-rule="evenodd" fill="#4B5184" d="M8,28h7v-2.222H8V28z M14.925,12.445H8v2.222h6.925V12.445z
				 M14.925,8H8v2.222h6.925V8z M8,23.556h7v-2.222H8V23.556z M22.036,0H4.321C2.487,0,1,1.469,1,3.281v28.438
				C1,33.531,2.487,35,4.321,35h24.357C30.513,35,32,33.531,32,31.719V9.844L22.036,0z M22.036,3.281l6.643,6.563H24.25
				c-1.223,0-2.214-0.98-2.214-2.188V3.281z M29.786,30.625c0,1.208-0.991,2.188-2.214,2.188H5.429c-1.223,0-2.214-0.98-2.214-2.188
				V4.375c0-1.208,0.991-2.188,2.214-2.188h14.393V8.75c0,1.812,1.487,3.281,3.321,3.281h6.643V30.625z M8,19.111h7v-2.222H8V19.111
				z M22.441,16v1.438c-1.467,0.264-2.339,1.232-2.339,2.494c0,1.365,0.988,2.068,2.513,2.626c1.075,0.396,1.583,0.822,1.583,1.482
				c0,0.704-0.625,1.159-1.54,1.159c-0.886,0-1.7-0.308-2.266-0.645L20,25.932c0.523,0.352,1.438,0.616,2.354,0.645V28h1.191v-1.511
				C25.143,26.225,26,25.125,26,23.878c0-1.306-0.726-2.098-2.354-2.714c-1.235-0.499-1.758-0.836-1.758-1.438
				c0-0.499,0.363-1.027,1.38-1.027c0.988,0,1.627,0.337,1.976,0.499l0.392-1.35c-0.465-0.235-1.09-0.455-2.005-0.484V16H22.441z"/>
		</g>
	</g>
</g>
</svg>
