<?xml version="1.0" encoding="utf-8"?>
<!-- Generator: Adobe Illustrator 17.0.2, SVG Export Plug-In . SVG Version: 6.00 Build 0)  -->
<!DOCTYPE svg PUBLIC "-//W3C//DTD SVG 1.1//EN" "http://www.w3.org/Graphics/SVG/1.1/DTD/svg11.dtd">
<svg version="1.1" xmlns="http://www.w3.org/2000/svg" xmlns:xlink="http://www.w3.org/1999/xlink" x="0px" y="0px" width="43px"
	 height="43px" viewBox="0 0 43 43" enable-background="new 0 0 43 43" xml:space="preserve">
<g id="Ellipse_20_1_" enable-background="new    ">
	<g id="Ellipse_20">
		<g>
			<circle fill-rule="evenodd" clip-rule="evenodd" fill="#FFFFFF" cx="21.478" cy="21.5" r="21.477"/>
		</g>
	</g>
</g>
<g id="Forme_9_1_" enable-background="new    ">
	<g id="Forme_9">
		<g>
			<path fill-rule="evenodd" clip-rule="evenodd" fill="#4C5284" d="M38.827,24.682c-1.535,8.123-8.665,14.269-17.234,14.269
				c-9.689,0-17.544-7.855-17.544-17.544c0-2.656,0.593-5.171,1.649-7.427l-3.88-1.254C0.65,15.383,0,18.319,0,21.407
				C0,33.333,9.667,43,21.593,43c10.372,0,19.034-7.313,21.115-17.064L38.827,24.682z"/>
		</g>
	</g>
</g>
<g id="Forme_2_1_" enable-background="new    ">
	<g id="Forme_2">
		<g>
			<path fill-rule="evenodd" clip-rule="evenodd" fill="#43497E" d="M29.562,18.863l-0.075-0.024
				c0.02-0.015,0.038-0.026,0.058-0.041l-9.995-3.173c0.004-0.002,0.008-0.004,0.012-0.006l-3.385-1.098
				c-0.009,0.008-0.017,0.017-0.026,0.025l-0.041-0.013c0,0,0.004,0.016,0.01,0.042c-1.751,1.497-2.85,3.727-2.888,6.283
				c-0.072,4.831,3.444,8.654,8.168,8.725s8.352-3.642,8.423-8.473C29.834,20.329,29.738,19.578,29.562,18.863z M21.406,26.862
				c-2.972-0.045-5.325-2.642-5.275-6.009c0.019-1.288,0.425-2.442,1.087-3.368c1.378,2.647,4.235,5.724,9.61,3.026
				c0.011,0.168,0.032,0.332,0.029,0.505C26.808,24.383,24.378,26.907,21.406,26.862z"/>
		</g>
	</g>
</g>
<g id="Forme_7_copie_1_" opacity="0.4784" enable-background="new    ">
	<g id="Forme_7_copie">
		<g>
			<path fill-rule="evenodd" clip-rule="evenodd" fill="#494D74" d="M21.408,0C13.654,0,6.856,4.088,3.048,10.225l4.007,1.285
				c3.175-4.511,8.418-7.461,14.353-7.461c9.689,0,17.544,7.855,17.544,17.544c0,0.049-0.003,0.097-0.004,0.147l4.004,1.284
				C42.983,22.55,43,22.074,43,21.593C43,9.667,33.333,0,21.408,0z"/>
		</g>
	</g>
</g>
</svg>
