<?xml version="1.0" encoding="utf-8"?>
<!-- Generator: Adobe Illustrator 17.0.2, SVG Export Plug-In . SVG Version: 6.00 Build 0)  -->
<!DOCTYPE svg PUBLIC "-//W3C//DTD SVG 1.1//EN" "http://www.w3.org/Graphics/SVG/1.1/DTD/svg11.dtd">
<svg version="1.1" xmlns="http://www.w3.org/2000/svg" xmlns:xlink="http://www.w3.org/1999/xlink" x="0px" y="0px" width="38px"
	 height="38px" viewBox="0 0 38 38" enable-background="new 0 0 38 38" xml:space="preserve">
<g id="Rectangle_17_copie_3_1_" enable-background="new    ">
	<g id="Rectangle_17_copie_3">
		<g>
			<path fill-rule="evenodd" clip-rule="evenodd" fill="#FFFFFF" d="M2.844,13.938h11.99V2.983H2.844V13.938z M2.844,34.85h11.99
				V23.896H2.844V34.85z M22.827,34.85h11.99V23.896h-11.99V34.85z M22.827,3.979v10.954h11.99V3.979H22.827z"/>
		</g>
	</g>
</g>
<g id="Grid_1_" enable-background="new    ">
	<g id="Grid">
		<g>
			<path fill-rule="evenodd" clip-rule="evenodd" fill="#6DB221" d="M35.504,21.718H23.951c-1.276,0-2.311,1.031-2.311,2.303v11.514
				c0,1.272,1.034,2.303,2.311,2.303h11.553c1.276,0,2.311-1.031,2.311-2.303V24.02C37.815,22.749,36.78,21.718,35.504,21.718z
				 M34.817,34.85h-9.992v-9.958h9.992V34.85z M35.504,0.992H23.951c-1.276,0-2.311,1.031-2.311,2.303v11.514
				c0,1.272,1.034,2.303,2.311,2.303h11.553c1.276,0,2.311-1.031,2.311-2.303V3.295C37.815,2.023,36.78,0.992,35.504,0.992z
				 M34.817,13.938h-9.992V3.979h9.992V13.938z M14.709,21.718H3.156c-1.276,0-2.311,1.031-2.311,2.303v11.514
				c0,1.272,1.035,2.303,2.311,2.303h11.553c1.276,0,2.311-1.031,2.311-2.303V24.02C17.02,22.749,15.985,21.718,14.709,21.718z
				 M13.835,34.85H3.843v-9.958h9.992V34.85z M14.709,0.992H3.156c-1.276,0-2.311,1.031-2.311,2.303v11.514
				c0,1.272,1.035,2.303,2.311,2.303h11.553c1.276,0,2.311-1.031,2.311-2.303V3.295C17.02,2.023,15.985,0.992,14.709,0.992z
				 M13.835,13.938H3.843V3.979h9.992V13.938z"/>
		</g>
	</g>
</g>
</svg>
