<?xml version="1.0" encoding="utf-8"?>
<!-- Generator: Adobe Illustrator 17.0.2, SVG Export Plug-In . SVG Version: 6.00 Build 0)  -->
<!DOCTYPE svg PUBLIC "-//W3C//DTD SVG 1.1//EN" "http://www.w3.org/Graphics/SVG/1.1/DTD/svg11.dtd">
<svg version="1.1" xmlns="http://www.w3.org/2000/svg" xmlns:xlink="http://www.w3.org/1999/xlink" x="0px" y="0px" width="37px"
	 height="38px" viewBox="0 0 37 38" enable-background="new 0 0 37 38" xml:space="preserve">
<g id="Rectangle_15_1_" enable-background="new    ">
	<g id="Rectangle_15">
		<g>
			<rect x="1.057" y="2.057" fill-rule="evenodd" clip-rule="evenodd" fill="#FFFFFF" width="34.886" height="34.886"/>
		</g>
	</g>
</g>
<g id="SQUARE__x2F__DASHED_1_" enable-background="new    ">
	<g id="SQUARE__x2F__DASHED">
		<g>
			<path fill-rule="evenodd" clip-rule="evenodd" fill="#6DB221" d="M17.881,23.929c-1.161,0-2.227-0.4-2.969-0.838l-0.514,1.789
				c0.685,0.457,1.884,0.799,3.084,0.838v1.846h1.561v-1.96c2.094-0.343,3.217-1.77,3.217-3.388c0-1.694-0.952-2.722-3.084-3.521
				c-1.618-0.647-2.303-1.085-2.303-1.865c0-0.647,0.476-1.332,1.808-1.332c1.294,0,2.132,0.438,2.589,0.647l0.514-1.751
				c-0.609-0.304-1.428-0.59-2.627-0.628v-1.77h-1.561v1.865c-1.922,0.343-3.065,1.599-3.065,3.236c0,1.77,1.294,2.684,3.293,3.407
				c1.409,0.514,2.075,1.066,2.075,1.922C19.899,23.339,19.081,23.929,17.881,23.929z M8.672,1L8.672,1H1.734
				C0.777,1,0,1.777,0,2.735v6.937h0c0,0.958,0.777,1.735,1.734,1.735c0.958,0,1.734-0.777,1.734-1.735V4.469h5.203
				c0.958,0,1.734-0.777,1.734-1.734C10.406,1.777,9.63,1,8.672,1z M21.391,34.531h-5.781c-0.958,0-1.734,0.776-1.734,1.734
				c0,0.958,0.776,1.734,1.734,1.734h5.781c0.958,0,1.734-0.777,1.734-1.734C23.125,35.308,22.349,34.531,21.391,34.531z
				 M8.672,34.531H3.469v-5.203c0-0.958-0.777-1.735-1.734-1.735C0.777,27.594,0,28.37,0,29.328h0v6.937C0,37.224,0.777,38,1.734,38
				h6.937c0.958,0,1.734-0.776,1.734-1.734S9.63,34.531,8.672,34.531z M1.734,24.125c0.958,0,1.734-0.777,1.734-1.735v-5.781
				c0-0.958-0.776-1.734-1.734-1.734C0.777,14.875,0,15.652,0,16.609v5.781C0,23.349,0.777,24.125,1.734,24.125z M35.266,1h-6.937h0
				c-0.958,0-1.734,0.776-1.734,1.734c0,0.958,0.776,1.734,1.734,1.734h5.203v5.203c0,0,0,0,0,0c0,0.958,0.776,1.735,1.734,1.735
				c0.958,0,1.734-0.777,1.734-1.735V2.735C37,1.777,36.224,1,35.266,1z M35.266,14.875c-0.958,0-1.734,0.777-1.734,1.734v5.781
				c0,0.958,0.776,1.735,1.734,1.735c0.958,0,1.734-0.777,1.734-1.735v-5.781C37,15.652,36.223,14.875,35.266,14.875z
				 M35.266,27.594c-0.958,0-1.734,0.777-1.734,1.735c0,0,0,0,0,0v5.203h-5.203c-0.958,0-1.734,0.776-1.734,1.734
				S27.37,38,28.328,38h6.938C36.224,38,37,37.224,37,36.266v-6.937C37,28.37,36.224,27.594,35.266,27.594z M21.391,1h-5.781
				c-0.958,0-1.734,0.777-1.734,1.735c0,0.958,0.776,1.734,1.734,1.734h5.781c0.958,0,1.734-0.777,1.734-1.734
				C23.125,1.777,22.349,1,21.391,1z"/>
		</g>
	</g>
</g>
</svg>
