<?xml version="1.0" encoding="utf-8"?>
<!-- Generator: Adobe Illustrator 17.1.0, SVG Export Plug-In . SVG Version: 6.00 Build 0)  -->
<!DOCTYPE svg PUBLIC "-//W3C//DTD SVG 1.1//EN" "http://www.w3.org/Graphics/SVG/1.1/DTD/svg11.dtd">
<svg version="1.1" id="Calque_1" xmlns="http://www.w3.org/2000/svg" xmlns:xlink="http://www.w3.org/1999/xlink" x="0px" y="0px"
	 viewBox="0 0 200 200" enable-background="new 0 0 200 200" xml:space="preserve">
<g>
	<g>
		<path fill="#FFFFFF" d="M0.2,200.5c0-66.4,0-132.7,0-199.1c67.1,0,134.2,0,201.4,0c0,66.4,0,132.7,0,199.1
			C134.5,200.5,67.4,200.5,0.2,200.5z M133.7,149.6c-0.1,1.7-0.1,3.3-0.3,4.9c0,0.5-0.4,0.9-0.6,1.3c-0.1,0-0.2-0.1-0.3-0.1
			c0,1.4,0,2.8,0,4.2c0,0.4,0.4,0.9,0.6,1.3c0.1,0,0.2-0.1,0.3-0.1c0.1,1.9,0.2,3.8,0.3,5.8c0.4,0.1,0.8,0.2,1,0.2
			c0.6,0.9-0.4,2.3,1.2,2.6c0.1,0.7,0.2,1.5,0.3,2.2c0.4,0.1,0.8,0.1,0.8,0.2c0.3,0.6,0.5,1,0.8,1.4c0.2,0.3,0.5,0.4,0.6,0.7
			c0.2,0.5,0.2,1,0.3,1.5c0.4,0.1,0.8,0.1,1.2,0.2c0,0.4,0.1,0.7,0.1,1c0.8,0.1,1.5,0.3,2.2,0.4c-0.1,0.1-0.1,0.2-0.2,0.3
			c0.6,0.6,1.1,1.2,1.8,1.9c0.1,0,0.5,0,0.8,0.1c0.1,0.5,0.1,0.8,0.2,1.2c0.8,0.1,1.5,0.1,2.3,0.2c0.1,0.3,0.1,0.7,0.2,1
			c1.2,0.1,2.4,0.2,3.6,0.3c0.1,0.4,0.2,0.8,0.2,1.1c1.7,0.1,3.3,0.1,4.9,0.2c0.5,0,0.9,0.4,1.3,0.6c0,0.1-0.1,0.2-0.1,0.3
			c1,0,2,0,3,0c0.7,0,1.3,0,1.2-0.9c2-0.1,3.9-0.2,5.9-0.3c0.1-0.4,0.1-0.7,0.2-1.1c1.1-0.1,2.2-0.2,3.3-0.3c0.1-0.3,0.2-0.7,0.2-1
			c0.8-0.1,1.6-0.1,2.3-0.2c0.1-0.5,0.1-0.8,0.1-1.2c0.5,0,0.9-0.1,1.3-0.1c0-0.1-0.1-0.1-0.1-0.2c0.4-0.4,0.9-0.7,1.5-1.2
			c0-0.1,0.1-0.5,0.1-0.8c0.8-0.1,1.5-0.3,2.1-0.4c0.1-0.7,0.3-1.4,0.4-2.1c1.1-0.1,2.2-1.3,2.4-2.7c0.3,0,0.7-0.1,1.1-0.1
			c0.1-0.8,0.2-1.5,0.3-2.2c1.6-0.4,0.6-1.9,1.2-2.6c0.3-0.1,0.6-0.1,1.1-0.2c0-1.2-0.1-2.3,0-3.4c0-0.5,0.4-1,0.6-1.4
			c0.1,0,0.2,0.1,0.3,0.1c0-2.2,0-4.3,0-5.8c-1.5-2.5-0.7-4.8-1.2-6.7c-0.4-0.1-0.7-0.1-0.8-0.2c-0.7-0.9,0.4-2.4-1.3-2.7
			c-0.1-0.8-0.2-1.5-0.3-2.3c-0.4-0.1-0.7-0.1-1-0.2c-0.1-0.8-0.2-1.6-0.3-2.3c-1.5-0.3-0.7-1.7-1.2-2.5c-0.3-0.1-0.6-0.1-1-0.2
			c-0.1-0.8-0.2-1.5-0.3-2.3c-0.3-0.1-0.6-0.1-0.9-0.2c-0.1-0.8-0.1-1.6-0.2-2.3c-0.4,0-0.8-0.1-1.2-0.1c-0.1-0.4-0.1-0.8-0.1-1.1
			c-1.6-0.3-0.7-1.7-1.3-2.5c-0.3,0-0.6-0.1-1-0.1c-0.1-0.8-0.1-1.5-0.2-2.3c-0.4-0.1-0.7-0.1-1-0.2c0-0.5-0.1-0.9-0.1-1.3
			c-0.4-0.1-0.8-0.1-1.1-0.2c-0.1-0.8-0.2-1.5-0.3-2.2c-0.3-0.1-0.6-0.1-1-0.2c0.1-0.1,0.1-0.1,0.2-0.2c-0.3-0.4-0.7-0.8-1-1.2
			c0,0-0.1,0.1-0.1,0.1c-0.1-0.7-0.2-1.4-0.3-2.2c-0.4,0-0.7-0.1-1.1-0.1c-0.1-0.8-0.2-1.5-0.2-2.3c-0.4-0.1-0.7-0.1-1-0.2
			c0-0.5-0.1-0.9-0.1-1.3c-0.4-0.1-0.8-0.2-1.1-0.2c-0.1-0.8-0.2-1.5-0.3-2.2c-0.4-0.1-0.7-0.1-1-0.2c-0.1-0.4-0.1-0.7-0.1-1
			c-0.4-0.1-0.8-0.1-1.2-0.2c0.1-0.1,0.1-0.1,0.2-0.2c-0.4-0.4-0.7-0.8-1.1-1.3c0,0-0.1,0.1-0.1,0.1c-0.1-0.7-0.2-1.4-0.3-2.1
			c-0.4-0.1-0.8-0.1-1.2-0.2c-0.1-0.5-0.1-0.8-0.1-1.2c-1.4-0.6-1.1,0.6-1.4,1.2c-0.4,0-0.7,0.1-1.1,0.1c-0.1,0.8-0.2,1.5-0.4,2.2
			c-0.1-0.1-0.2-0.1-0.3-0.2c-0.3,0.4-0.6,0.9-1,1.5c-0.2,0-0.5,0.1-0.9,0.1c-0.1,0.4-0.1,0.7-0.1,1.1c-0.4,0.1-0.7,0.1-1,0.2
			c-0.1,0.8-0.2,1.5-0.3,2.2c-0.4,0.1-0.7,0.1-1.1,0.2c-0.1,0.5-0.1,0.9-0.1,1.3c-0.4,0.1-0.7,0.1-1,0.2c-0.1,0.8-0.2,1.5-0.3,2.2
			c-0.4,0.1-0.8,0.2-1.1,0.2c-0.1,0.8-0.2,1.5-0.3,2.2c-0.1-0.1-0.2-0.1-0.2-0.2c-0.3,0.5-0.7,1-1.1,1.5c-0.2,0-0.5,0.1-1.1,0.1
			c0.8,1.7-1.3,2.3-1.2,3.8c-0.4,0-0.7,0.1-1.1,0.1c-0.1,0.8-0.2,1.5-0.2,2.3c-0.3,0.1-0.7,0.2-0.9,0.2c-0.1,0.8-0.2,1.5-0.3,2.3
			c-1.3-0.4-0.7,0.7-1,1.2c-0.4,0.1-0.8,0.1-1.2,0.2c-0.3,1,0.4,2.3-1.2,2.5c-0.1,0.8-0.2,1.5-0.3,2.2c-0.4,0.1-0.7,0.2-1.1,0.2
			c0,0.4-0.1,0.7-0.1,1.1c-0.4,0.1-0.7,0.1-1,0.1c-0.1,0.8-0.1,1.6-0.2,2.3c-0.5,0-0.8,0.1-1.1,0.1c-0.4,1.3,0.3,2.9-1.2,4.1
			c-0.1,0.5-0.1,1.3-0.2,2.1C134.4,149.4,134.1,149.5,133.7,149.6z M53.8,184.5c0.5-1.6,1.9-0.8,2.8-1c1.1-0.2,2.2,0,3.4,0
			c0.1-0.5,0.2-0.9,0.3-1.3c1.2-0.1,2.4-0.2,3.5-0.3c0.1-0.4,0.2-0.7,0.2-1c0.8-0.1,1.6-0.1,2.3-0.2c0.1-0.5,0.1-0.8,0.1-1.2
			c0.4,0,0.7-0.1,1.1-0.1c-0.1-0.1-0.1-0.2-0.2-0.3c0.5-0.3,1-0.6,1.7-1c0-0.2,0.1-0.5,0.1-0.8c0.7-0.1,1.3-0.3,1.9-0.4
			c0.1-0.8,0.3-1.4,0.4-2.1c1.1-0.1,2.2-1.3,2.4-2.6c0.3,0,0.7-0.1,1.1-0.1c0.1-0.8,0.2-1.5,0.3-2.2c1.7-0.3,0.6-1.8,1.2-2.7
			c0.3,0,0.6-0.1,1-0.2c0.1-1.5,0.2-3,0.2-4.5c0.1,0,0.2,0.1,0.3,0.1c0.2-0.3,0.6-0.6,0.6-0.9c0.1-2,0-3.9,0-5.9
			c-0.1,0-0.2,0.1-0.3,0.1c-0.2-0.4-0.6-0.9-0.6-1.3c-0.1-1.6-0.2-3.3-0.3-4.9c-0.4-0.1-0.8-0.1-1.2-0.2c-0.1-0.8-0.1-1.6-0.2-2.4
			c-1.6-0.3-0.7-1.7-1.2-2.6c-0.3,0-0.6-0.1-0.9-0.1c-0.1-0.8-0.2-1.5-0.3-2.3c-0.3-0.1-0.5-0.1-0.8-0.2c-0.1-0.8-0.2-1.5-0.4-2.3
			c-0.4-0.1-0.7-0.1-1.1-0.2c-0.1-0.8-0.2-1.5-0.3-2.2c-0.3-0.1-0.6-0.1-1-0.2c-0.1-0.8-0.1-1.5-0.2-2.3c-0.3,0-0.7-0.1-1-0.1
			c-0.1-0.4-0.1-0.8-0.2-1.2c-0.4,0-0.7-0.1-1.1-0.1c-0.1-0.8-0.2-1.5-0.3-2.3c-1.8-0.2-0.6-1.7-1.2-2.5c-0.4-0.1-0.8-0.1-1.1-0.2
			c-0.2-0.6,0.3-1.5-0.8-1.5c-0.1,0-0.2-0.3-0.2-0.5c-0.1-0.6-0.2-1.2-0.3-1.8c-0.4,0-0.7-0.1-1-0.1c-0.2-0.5-0.4-1.1-0.6-1.2
			c-0.7-0.1-0.6-0.5-0.7-1c-0.1-0.5-0.2-1-0.3-1.5c-0.4,0-0.7-0.1-1.1-0.1c-0.1-0.8-0.2-1.6-0.2-2.3c-0.4-0.1-0.7-0.1-1-0.2
			c-0.1-0.5-0.1-0.9-0.1-1.3c-0.4-0.1-0.7-0.1-1.1-0.1c-0.1-0.8-0.2-1.5-0.3-2.2c-0.3,0-0.6-0.1-1-0.1c-0.1-0.4-0.1-0.8-0.2-1.1
			c-0.4,0-0.7-0.1-1.1-0.1c0.1-0.1,0.1-0.2,0.2-0.3c-0.4-0.3-0.8-0.6-1.1-1c-0.1-0.1-0.2-0.3-0.2-0.5c-0.1-0.6-0.2-1.2-0.3-1.8
			c-0.4,0-0.8-0.1-1.1-0.1c-0.1-0.5-0.1-0.9-0.2-1.2c-1.3-0.5-1.2,0.5-1.3,1.2c-0.4,0.1-0.8,0.1-1.1,0.1c-0.1,0.8-0.2,1.5-0.4,2.3
			c-1.1-0.4-0.9,0.7-1.1,1.2c-0.4,0-0.7,0.1-1.1,0.1c-0.1,0.4-0.1,0.8-0.2,1.1c-0.4,0.1-0.7,0.1-1,0.2c-0.2,1,0.3,2.2-1.2,2.4
			c-0.1,0.5-0.1,0.9-0.1,1.3c-0.4,0-0.8,0.1-1.1,0.1c-0.5,0.9,0.4,2.3-1.2,2.5c-0.1,0.8-0.2,1.5-0.3,2.2c-0.4,0.1-0.7,0.2-1.1,0.2
			c0,0.4-0.1,0.7-0.1,1c-0.4,0.1-0.7,0.2-0.9,0.2c-0.1,0.8-0.2,1.5-0.3,2.2c-0.4,0.1-0.7,0.1-1.1,0.2c0,0.5-0.1,0.9-0.1,1.3
			c-0.4,0.1-0.7,0.2-1,0.2c-0.1,0.8-0.2,1.5-0.2,2.2c-0.4,0.1-0.8,0.1-1.1,0.2c-0.1,0.8-0.2,1.5-0.3,2.2c-0.1,0-0.1-0.1-0.2-0.1
			c-0.3,0.5-0.7,0.9-1.1,1.6c-0.1,0-0.5,0-0.9,0.1c-0.1,0.8-0.2,1.5-0.2,2.3c-0.4,0.1-0.6,0.1-0.9,0.2c-0.1,0.8-0.2,1.5-0.3,2.3
			c-0.4,0.1-0.7,0.1-1.1,0.2c0,0.4-0.1,0.8-0.1,1.1c-0.4,0.1-0.7,0.1-1,0.2c-0.1,0.8-0.1,1.6-0.2,2.3c-0.5,0.1-0.8,0.1-1.2,0.2
			c-0.1,1.2-0.2,2.4-0.3,3.5c-1.7,0.3-0.6,1.8-1.2,2.6c-0.3,0.1-0.6,0.1-1,0.2c-0.1,1.7-0.1,3.3-0.3,4.9c0,0.5-0.4,0.9-0.6,1.3
			c-0.1,0-0.2-0.1-0.3-0.1c0,1.4,0,2.8,0,4.2c0,0.4,0.4,0.9,0.6,1.3c0.1,0,0.2-0.1,0.3-0.1c0.1,1.9,0.2,3.8,0.3,5.8
			c0.4,0.1,0.8,0.2,1.1,0.3c0.1,0.8,0.2,1.6,0.3,2.3c1.6,0.3,0.7,1.7,1.2,2.5c0.3,0,0.6,0.1,0.8,0.1c0.3,0.6,0.5,1,0.8,1.4
			c0.2,0.3,0.5,0.5,0.6,0.7c0.2,0.5,0.2,1,0.3,1.5c0.4,0,0.8,0.1,1.2,0.1c0,0.4,0.1,0.7,0.1,1c0.8,0.1,1.5,0.3,2.2,0.4
			c-0.2,0.9,1,1.1,1,1.4c0.2,1.1,1.1,0.7,1.7,0.9c0,0.4,0.1,0.8,0.1,1.2c0.8,0.1,1.5,0.1,2.3,0.2c0.1,0.3,0.1,0.7,0.2,1
			c1.2,0.1,2.3,0.2,3.3,0.3c0.1,0.5,0.2,0.8,0.3,1.1c1.7,0.1,3.3,0.1,5,0.3c0.5,0,0.9,0.4,1.3,0.6c0,0.1-0.1,0.2-0.1,0.3
			C51.2,184.5,52.5,184.5,53.8,184.5z M131.4,68.1c-0.1-2-0.2-4-0.3-5.9c-1.8-0.3-0.7-1.8-1.2-2.7c-0.3,0-0.6-0.1-0.9-0.1
			c-0.1-0.8-0.2-1.6-0.3-2.4c-0.3-0.1-0.5-0.1-0.8-0.2c-0.1-0.8-0.2-1.6-0.3-2.3c-0.4-0.1-0.7-0.1-1-0.2c-0.1-0.8-0.2-1.5-0.4-2.3
			c-1.6-0.3-0.7-1.7-1.2-2.5c-0.3-0.1-0.7-0.1-1.1-0.2c-0.1-0.8-0.1-1.5-0.2-2.2c-0.4-0.1-0.7-0.1-1-0.2c0-0.5-0.1-0.9-0.1-1.3
			c-0.4-0.1-0.7-0.1-1.1-0.2c-0.1-0.8-0.2-1.5-0.3-2.2c-0.3-0.1-0.6-0.1-0.9-0.2c-0.1-0.8-0.1-1.5-0.2-2.3c-0.3,0-0.6-0.1-1-0.1
			c-0.1-0.4-0.1-0.8-0.2-1.2c-0.4,0-0.7-0.1-1.1-0.1c-0.1-0.8-0.2-1.5-0.3-2.3c-0.3-0.1-0.6-0.1-0.9-0.2c-0.1-0.4-0.1-0.8-0.2-1.1
			c-0.4,0-0.7-0.1-1-0.1c-0.1-0.8-0.2-1.5-0.3-2.3c-1.8-0.2-0.6-1.8-1.3-2.5c-0.3,0-0.7-0.1-1.1-0.1c0-0.5-0.1-0.9-0.1-1.3
			c-1.7-0.2-0.7-1.7-1.3-2.5c-0.4,0-0.7-0.1-1.1-0.1c0-0.4-0.1-0.7-0.1-1c-0.4-0.1-0.7-0.2-1-0.2c-0.1-0.5-0.1-0.9-0.2-1.3
			c-0.4,0-0.7-0.1-1.1-0.1c-0.1-0.8-0.2-1.5-0.4-2.4c-1.1,0.4-0.9-0.5-1.1-1.1c-0.4,0-0.8,0-1.4,0c0.4,1.1-0.4,1.1-0.9,1.3
			c-0.1,0.8-0.2,1.5-0.3,2.2c-0.4,0.1-0.7,0.1-1.1,0.1c-0.1,0.8,0,1.6-1.1,1.5c-0.1,0.4-0.1,0.8-0.2,1.1c-0.4,0-0.8,0.1-1.2,0.1
			c-0.3,1,0.3,2.3-1.2,2.5c-0.1,0.5-0.1,0.9-0.1,1.3c-0.5,0.1-0.8,0.1-1.1,0.1c-0.4,0.9,0.4,2.3-1.4,2.5c0.7,1.6-1,2.2-1.2,3.5
			c-0.3,0-0.7,0.1-1,0.1c-0.4,0.9,0.4,2.2-1.2,2.5c0,0.4-0.1,0.7-0.1,1.1c-0.4,0-0.8,0.1-1.2,0.1c-0.1,0.8-0.2,1.5-0.2,2.2
			c-0.4,0.1-0.7,0.2-0.9,0.3c-0.1,0.8-0.2,1.5-0.3,2.2c-0.4,0.1-0.7,0.1-1.1,0.2c0,0.5-0.1,0.9-0.1,1.3c-0.4,0.1-0.7,0.2-1,0.2
			c-0.1,0.8-0.2,1.5-0.2,2.2c-0.4,0.1-0.8,0.1-1.1,0.2c-0.1,0.8-0.2,1.5-0.3,2.3c-1.1-0.2-0.9,0.7-1,1.3c-0.4,0-0.8,0.1-1.2,0.1
			c-0.1,0.8-0.1,1.5-0.2,2.4c-0.3,0.1-0.7,0.1-1,0.1c-0.1,1.2-0.2,2.4-0.3,3.6c-0.4,0.1-0.7,0.1-1.1,0.1c-0.1,0.8-0.2,1.6-0.3,2.4
			c-0.3,0.1-0.6,0.2-0.9,0.3c-0.1,2-0.2,3.9-0.3,5.8c-0.4,0.1-0.8,0.2-1.1,0.2c0,1.8,0,3.5,0,5.2c0.4,0,0.7,0.1,1.1,0.1
			c0.1,2,0.2,3.9,0.3,5.9c0.3,0.1,0.6,0.2,0.9,0.3c0.1,0.8,0.2,1.6,0.3,2.3c0.4,0,0.7,0.1,1,0.1c0.1,0.8,0.2,1.5,0.3,2.1
			c0.4,0.3,0.9,0.6,0.9,0.8c0,0.9,0.5,1.1,1.3,1c0.1,0.8,0.3,1.4,0.4,2.2c0.3,0,0.6,0.1,1,0.1c0,0.4,0.1,0.7,0.1,0.9
			c0.8,0.2,2,0.2,2.1,0.5c0.2,1,0.9,0.9,1.5,1c0.1,0.4,0.1,0.7,0.2,1.1c0.4,0.1,0.8,0.1,1.1,0.1c0.1,0.4,0.2,0.7,0.2,1
			c0.8,0.1,1.5,0.1,2.3,0.2c0,0.4,0.1,0.8,0.1,1.2c1,0.1,1.9,0.1,2.8,0.3c0.2,0,0.6,0.2,0.6,0.3c0,0.8,0.6,0.6,1.1,0.6
			c1.7,0,3.5,0,5.2,0c0.1,0.7,0.2,1,0.3,1.3c1.3,0,2.6,0,3.9,0c0-0.4,0.1-0.7,0.1-1.1c2.1-0.1,4.1-0.2,6-0.3
			c0.8-1.7,2.5-0.7,3.7-1.2c0.1-0.4,0.1-0.7,0.2-1.1c0.8-0.1,1.6-0.1,2.3-0.2c0.1-0.4,0.1-0.7,0.2-1c0.4,0,0.7-0.1,1.1-0.1
			c0.1-0.4,0.2-0.8,0.2-0.9c0.6-0.3,1-0.5,1.4-0.7c0.3-0.2,0.5-0.5,0.8-0.6c0.4-0.2,0.9-0.2,1.4-0.3c0.1-0.7,0.3-1.4,0.4-2.1
			c0.1,0,0.1,0.1,0.2,0.1c0.4-0.4,0.8-0.8,1.1-1.2c0,0-0.1-0.1-0.1-0.1c0.4-0.1,0.7-0.1,1.1-0.2c-0.1-0.1-0.1-0.1-0.2-0.2
			c0.4-0.5,0.7-1,1.1-1.5c0.1,0.1,0.1,0.1,0.2,0.2c0.1-0.7,0.2-1.5,0.3-2.2c0.4-0.1,0.7-0.1,1-0.2c0.4-0.9-0.5-2.4,1.2-2.6
			c0.1-1.6,0.2-3.2,0.3-4.7c0.4-0.1,0.7-0.1,1.1-0.2c0-2.2,0-4.3,0-6.4C132.1,68.2,131.8,68.2,131.4,68.1z"/>
		<path d="M133.7,149.6c0.4-0.1,0.7-0.2,1.1-0.2c0.1-0.8,0.2-1.5,0.2-2.1c1.5-1.1,0.8-2.7,1.2-4.1c0.3,0,0.7-0.1,1.1-0.1
			c0.1-0.8,0.1-1.5,0.2-2.3c0.3,0,0.6-0.1,1-0.1c0-0.4,0.1-0.7,0.1-1.1c0.4-0.1,0.7-0.2,1.1-0.2c0.1-0.7,0.2-1.4,0.3-2.2
			c1.6-0.2,0.9-1.5,1.2-2.5c0.3,0,0.7-0.1,1.2-0.2c0.2-0.5-0.3-1.6,1-1.2c0.1-0.8,0.2-1.5,0.3-2.3c0.3-0.1,0.6-0.1,0.9-0.2
			c0.1-0.8,0.2-1.5,0.2-2.3c0.4,0,0.8-0.1,1.1-0.1c-0.1-1.5,2-2.1,1.2-3.8c0.6-0.1,0.9-0.1,1.1-0.1c0.4-0.6,0.7-1,1.1-1.5
			c0.1,0.1,0.2,0.1,0.2,0.2c0.1-0.7,0.2-1.4,0.3-2.2c0.3-0.1,0.7-0.1,1.1-0.2c0.1-0.7,0.2-1.4,0.3-2.2c0.3-0.1,0.6-0.1,1-0.2
			c0-0.4,0.1-0.9,0.1-1.3c0.4-0.1,0.7-0.1,1.1-0.2c0.1-0.7,0.2-1.4,0.3-2.2c0.3-0.1,0.6-0.1,1-0.2c0-0.3,0.1-0.6,0.1-1.1
			c0.3-0.1,0.7-0.1,0.9-0.1c0.4-0.6,0.7-1,1-1.5c0.1,0.1,0.2,0.1,0.3,0.2c0.1-0.7,0.2-1.5,0.4-2.2c0.3,0,0.7-0.1,1.1-0.1
			c0.2-0.6-0.1-1.8,1.4-1.2c0,0.3,0.1,0.7,0.1,1.2c0.4,0.1,0.8,0.1,1.2,0.2c0.1,0.7,0.2,1.4,0.3,2.1c0,0,0.1-0.1,0.1-0.1
			c0.4,0.4,0.7,0.8,1.1,1.3c-0.1,0.1-0.1,0.1-0.2,0.2c0.4,0.1,0.7,0.1,1.2,0.2c0,0.3,0.1,0.6,0.1,1c0.3,0.1,0.6,0.1,1,0.2
			c0.1,0.7,0.2,1.4,0.3,2.2c0.4,0.1,0.7,0.2,1.1,0.2c0,0.4,0.1,0.8,0.1,1.3c0.3,0.1,0.6,0.1,1,0.2c0.1,0.7,0.2,1.5,0.2,2.3
			c0.4,0.1,0.8,0.1,1.1,0.1c0.1,0.7,0.2,1.5,0.3,2.2c0,0,0.1-0.1,0.1-0.1c0.3,0.4,0.7,0.8,1,1.2c-0.1,0.1-0.1,0.1-0.2,0.2
			c0.3,0.1,0.6,0.1,1,0.2c0.1,0.7,0.2,1.4,0.3,2.2c0.4,0.1,0.7,0.1,1.1,0.2c0,0.4,0.1,0.8,0.1,1.3c0.3,0.1,0.6,0.1,1,0.2
			c0.1,0.7,0.1,1.5,0.2,2.3c0.4,0,0.8,0.1,1,0.1c0.6,0.8-0.3,2.2,1.3,2.5c0,0.3,0.1,0.7,0.1,1.1c0.4,0,0.8,0.1,1.2,0.1
			c0.1,0.8,0.1,1.5,0.2,2.3c0.3,0.1,0.6,0.1,0.9,0.2c0.1,0.8,0.2,1.5,0.3,2.3c0.4,0.1,0.7,0.1,1,0.2c0.5,0.8-0.3,2.2,1.2,2.5
			c0.1,0.7,0.2,1.5,0.3,2.3c0.3,0.1,0.7,0.1,1,0.2c0.1,0.8,0.2,1.5,0.3,2.3c1.7,0.3,0.5,1.8,1.3,2.7c0.1,0,0.5,0.1,0.8,0.2
			c0.5,2-0.3,4.2,1.2,6.7c0,1.5,0,3.6,0,5.8c-0.1,0-0.2-0.1-0.3-0.1c-0.2,0.5-0.6,0.9-0.6,1.4c-0.1,1.1,0,2.3,0,3.4
			c-0.5,0.1-0.9,0.2-1.1,0.2c-0.7,0.8,0.4,2.3-1.2,2.6c-0.1,0.7-0.2,1.4-0.3,2.2c-0.4,0-0.7,0.1-1.1,0.1c-0.2,1.4-1.3,2.5-2.4,2.7
			c-0.1,0.7-0.2,1.4-0.4,2.1c-0.7,0.1-1.4,0.2-2.1,0.4c0,0.3-0.1,0.7-0.1,0.8c-0.6,0.5-1,0.8-1.5,1.2c0,0.1,0.1,0.1,0.1,0.2
			c-0.4,0-0.8,0.1-1.3,0.1c0,0.4-0.1,0.8-0.1,1.2c-0.7,0.1-1.5,0.1-2.3,0.2c-0.1,0.3-0.1,0.6-0.2,1c-1.1,0.1-2.2,0.2-3.3,0.3
			c-0.1,0.4-0.1,0.7-0.2,1.1c-2,0.1-3.9,0.2-5.9,0.3c0.1,0.9-0.5,1-1.2,0.9c-1,0-2,0-3,0c0-0.1,0.1-0.2,0.1-0.3
			c-0.4-0.2-0.9-0.6-1.3-0.6c-1.6-0.1-3.3-0.2-4.9-0.2c-0.1-0.4-0.1-0.7-0.2-1.1c-1.2-0.1-2.3-0.2-3.6-0.3c-0.1-0.3-0.1-0.6-0.2-1
			c-0.8-0.1-1.5-0.1-2.3-0.2c-0.1-0.4-0.1-0.8-0.2-1.2c-0.3,0-0.7-0.1-0.8-0.1c-0.7-0.7-1.3-1.3-1.8-1.9c0.1-0.1,0.1-0.2,0.2-0.3
			c-0.7-0.1-1.4-0.3-2.2-0.4c0-0.3-0.1-0.6-0.1-1c-0.4-0.1-0.8-0.1-1.2-0.2c-0.1-0.5-0.2-1-0.3-1.5c-0.1-0.3-0.4-0.5-0.6-0.7
			c-0.2-0.4-0.4-0.8-0.8-1.4c-0.1,0-0.4-0.1-0.8-0.2c-0.1-0.7-0.2-1.4-0.3-2.2c-1.6-0.3-0.6-1.7-1.2-2.6c-0.2,0-0.6-0.1-1-0.2
			c-0.1-1.9-0.2-3.9-0.3-5.8c-0.1,0-0.2,0.1-0.3,0.1c-0.2-0.4-0.5-0.9-0.6-1.3c-0.1-1.4,0-2.8,0-4.2c0.1,0,0.2,0.1,0.3,0.1
			c0.2-0.4,0.6-0.9,0.6-1.3C133.6,152.9,133.6,151.3,133.7,149.6z"/>
		<path d="M53.8,184.5c-1.3,0-2.6,0-3.9,0c0-0.1,0.1-0.2,0.1-0.3c-0.4-0.2-0.9-0.6-1.3-0.6c-1.6-0.1-3.3-0.2-5-0.3
			c-0.1-0.3-0.2-0.7-0.3-1.1c-1.1-0.1-2.2-0.2-3.3-0.3c0-0.3-0.1-0.6-0.2-1c-0.8-0.1-1.5-0.1-2.3-0.2c0-0.4-0.1-0.8-0.1-1.2
			c-0.6-0.2-1.4,0.1-1.7-0.9c-0.1-0.3-1.2-0.5-1-1.4c-0.8-0.1-1.5-0.3-2.2-0.4c0-0.3-0.1-0.6-0.1-1c-0.4,0-0.8-0.1-1.2-0.1
			c-0.1-0.5-0.2-1.1-0.3-1.5c-0.1-0.3-0.4-0.5-0.6-0.7c-0.3-0.4-0.5-0.8-0.8-1.4c-0.2,0-0.5-0.1-0.8-0.1c-0.5-0.8,0.3-2.2-1.2-2.5
			c-0.1-0.7-0.2-1.5-0.3-2.3c-0.3-0.1-0.7-0.2-1.1-0.3c-0.1-1.9-0.2-3.8-0.3-5.8c-0.1,0-0.2,0.1-0.3,0.1c-0.2-0.4-0.6-0.9-0.6-1.3
			c-0.1-1.4,0-2.8,0-4.2c0.1,0,0.2,0.1,0.3,0.1c0.2-0.4,0.6-0.9,0.6-1.3c0.1-1.6,0.2-3.3,0.3-4.9c0.4-0.1,0.7-0.2,1-0.2
			c0.7-0.8-0.5-2.3,1.2-2.6c0.1-1.1,0.2-2.3,0.3-3.5c0.3,0,0.7-0.1,1.2-0.2c0.1-0.7,0.1-1.5,0.2-2.3c0.3-0.1,0.6-0.1,1-0.2
			c0-0.4,0.1-0.7,0.1-1.1c0.4-0.1,0.7-0.1,1.1-0.2c0.1-0.7,0.2-1.5,0.3-2.3c0.3-0.1,0.6-0.1,0.9-0.2c0.1-0.8,0.2-1.5,0.2-2.3
			c0.4,0,0.8-0.1,0.9-0.1c0.4-0.6,0.8-1.1,1.1-1.6c0.1,0,0.1,0.1,0.2,0.1c0.1-0.7,0.2-1.4,0.3-2.2c0.4,0,0.7-0.1,1.1-0.2
			c0.1-0.7,0.1-1.5,0.2-2.2c0.3-0.1,0.6-0.1,1-0.2c0-0.4,0.1-0.9,0.1-1.3c0.4-0.1,0.7-0.1,1.1-0.2c0.1-0.7,0.2-1.4,0.3-2.2
			c0.2-0.1,0.5-0.1,0.9-0.2c0-0.3,0.1-0.6,0.1-1c0.4-0.1,0.7-0.1,1.1-0.2c0.1-0.7,0.2-1.4,0.3-2.2c1.6-0.2,0.8-1.6,1.2-2.5
			c0.3,0,0.7-0.1,1.1-0.1c0-0.4,0.1-0.8,0.1-1.3c1.4-0.2,1-1.4,1.2-2.4c0.3-0.1,0.6-0.1,1-0.2c0.1-0.3,0.1-0.7,0.2-1.1
			c0.3,0,0.7-0.1,1.1-0.1c0.2-0.5,0-1.6,1.1-1.2c0.1-0.8,0.2-1.5,0.4-2.3c0.4,0,0.7-0.1,1.1-0.1c0.1-0.7,0-1.7,1.3-1.2
			c0.1,0.4,0.1,0.8,0.2,1.2c0.4,0,0.7,0.1,1.1,0.1c0.1,0.6,0.2,1.2,0.3,1.8c0,0.2,0.1,0.4,0.2,0.5c0.4,0.3,0.7,0.7,1.1,1
			c-0.1,0.1-0.1,0.2-0.2,0.3c0.3,0,0.7,0.1,1.1,0.1c0.1,0.3,0.1,0.7,0.2,1.1c0.3,0,0.7,0.1,1,0.1c0.1,0.8,0.2,1.5,0.3,2.2
			c0.4,0.1,0.7,0.1,1.1,0.1c0,0.4,0.1,0.8,0.1,1.3c0.3,0.1,0.6,0.1,1,0.2c0.1,0.7,0.2,1.4,0.2,2.3c0.4,0.1,0.7,0.1,1.1,0.1
			c0.1,0.5,0.2,1,0.3,1.5c0,0.4,0,0.9,0.7,1c0.2,0,0.4,0.7,0.6,1.2c0.2,0,0.6,0.1,1,0.1c0.1,0.6,0.2,1.2,0.3,1.8
			c0,0.2,0.1,0.5,0.2,0.5c1.1,0,0.7,0.9,0.8,1.5c0.4,0.1,0.7,0.1,1.1,0.2c0.6,0.7-0.6,2.3,1.2,2.5c0.1,0.7,0.2,1.4,0.3,2.3
			c0.3,0,0.7,0.1,1.1,0.1c0.1,0.4,0.1,0.8,0.2,1.2c0.3,0,0.6,0.1,1,0.1c0.1,0.8,0.1,1.5,0.2,2.3c0.3,0.1,0.6,0.1,1,0.2
			c0.1,0.7,0.2,1.4,0.3,2.2c0.3,0.1,0.7,0.1,1.1,0.2c0.1,0.8,0.2,1.5,0.4,2.3c0.3,0.1,0.6,0.1,0.8,0.2c0.1,0.8,0.2,1.5,0.3,2.3
			c0.3,0,0.7,0.1,0.9,0.1c0.5,0.9-0.4,2.3,1.2,2.6c0.1,0.8,0.1,1.5,0.2,2.4c0.4,0.1,0.8,0.1,1.2,0.2c0.1,1.7,0.1,3.3,0.3,4.9
			c0,0.5,0.4,0.9,0.6,1.3c0.1,0,0.2-0.1,0.3-0.1c0,2,0,3.9,0,5.9c0,0.3-0.4,0.6-0.6,0.9c-0.1,0-0.2-0.1-0.3-0.1
			c-0.1,1.5-0.2,3-0.2,4.5c-0.4,0.1-0.7,0.1-1,0.2c-0.6,0.8,0.5,2.4-1.2,2.7c-0.1,0.7-0.2,1.4-0.3,2.2c-0.4,0-0.7,0.1-1.1,0.1
			c-0.3,1.3-1.4,2.5-2.4,2.6c-0.1,0.7-0.3,1.4-0.4,2.1c-0.6,0.1-1.3,0.3-1.9,0.4c0,0.4-0.1,0.7-0.1,0.8c-0.6,0.4-1.2,0.7-1.7,1
			c0.1,0.1,0.1,0.2,0.2,0.3c-0.3,0-0.7,0.1-1.1,0.1c0,0.4-0.1,0.7-0.1,1.2c-0.7,0.1-1.5,0.1-2.3,0.2c-0.1,0.3-0.1,0.6-0.2,1
			c-1.1,0.1-2.3,0.2-3.5,0.3c-0.1,0.4-0.2,0.7-0.3,1.3c-1.1,0-2.3-0.2-3.4,0C55.7,183.6,54.4,182.8,53.8,184.5z"/>
		<path d="M131.4,68.1c0.4,0,0.7,0.1,1.1,0.1c0,2.1,0,4.2,0,6.4c-0.4,0-0.7,0.1-1.1,0.2c-0.1,1.6-0.2,3.1-0.3,4.7
			c-1.7,0.2-0.8,1.7-1.2,2.6c-0.3,0.1-0.6,0.1-1,0.2c-0.1,0.7-0.2,1.4-0.3,2.2c-0.1-0.1-0.1-0.1-0.2-0.2c-0.4,0.5-0.7,1-1.1,1.5
			c0.1,0.1,0.1,0.1,0.2,0.2c-0.4,0.1-0.7,0.1-1.1,0.2c0,0,0.1,0.1,0.1,0.1c-0.4,0.4-0.8,0.8-1.1,1.2c-0.1,0-0.1-0.1-0.2-0.1
			c-0.1,0.7-0.3,1.4-0.4,2.1c-0.5,0.1-1,0.1-1.4,0.3c-0.3,0.1-0.5,0.4-0.8,0.6c-0.4,0.2-0.8,0.4-1.4,0.7c0,0.1-0.1,0.5-0.2,0.9
			c-0.3,0-0.7,0.1-1.1,0.1c-0.1,0.3-0.1,0.6-0.2,1c-0.7,0.1-1.5,0.1-2.3,0.2c-0.1,0.4-0.1,0.8-0.2,1.1c-1.2,0.5-2.9-0.5-3.7,1.2
			c-2,0.1-4,0.2-6,0.3c0,0.4-0.1,0.7-0.1,1.1c-1.3,0-2.5,0-3.9,0c-0.1-0.3-0.1-0.6-0.3-1.3c-1.7,0-3.4,0-5.2,0c-0.5,0-1,0.2-1.1-0.6
			c0-0.1-0.4-0.3-0.6-0.3c-0.9-0.1-1.9-0.2-2.8-0.3c0-0.4-0.1-0.8-0.1-1.2c-0.8-0.1-1.5-0.1-2.3-0.2c-0.1-0.3-0.1-0.6-0.2-1
			c-0.3,0-0.7-0.1-1.1-0.1c-0.1-0.3-0.1-0.7-0.2-1.1c-0.6-0.1-1.3-0.1-1.5-1c-0.1-0.3-1.3-0.3-2.1-0.5c0-0.3-0.1-0.6-0.1-0.9
			c-0.4,0-0.7-0.1-1-0.1c-0.1-0.8-0.3-1.5-0.4-2.2c-0.8,0.1-1.3-0.1-1.3-1c0-0.2-0.5-0.5-0.9-0.8c-0.1-0.5-0.2-1.3-0.3-2.1
			c-0.3,0-0.7-0.1-1-0.1c-0.1-0.8-0.2-1.5-0.3-2.3c-0.3-0.1-0.6-0.2-0.9-0.3c-0.1-2-0.2-3.9-0.3-5.9c-0.4,0-0.7-0.1-1.1-0.1
			c0-1.8,0-3.5,0-5.2c0.3-0.1,0.7-0.1,1.1-0.2c0.1-1.9,0.2-3.9,0.3-5.8c0.3-0.1,0.5-0.2,0.9-0.3c0.1-0.8,0.2-1.5,0.3-2.4
			c0.3,0,0.7-0.1,1.1-0.1c0.1-1.2,0.2-2.3,0.3-3.6c0.3,0,0.6-0.1,1-0.1c0.1-0.8,0.1-1.6,0.2-2.4c0.4,0,0.8-0.1,1.2-0.1
			c0.1-0.6-0.1-1.5,1-1.3c0.1-0.8,0.2-1.5,0.3-2.3c0.3,0,0.7-0.1,1.1-0.2c0.1-0.7,0.2-1.4,0.2-2.2c0.3-0.1,0.6-0.1,1-0.2
			c0-0.4,0.1-0.9,0.1-1.3c0.3-0.1,0.7-0.1,1.1-0.2c0.1-0.7,0.2-1.4,0.3-2.2c0.2-0.1,0.5-0.2,0.9-0.3c0.1-0.7,0.1-1.5,0.2-2.2
			c0.4,0,0.7-0.1,1.2-0.1c0-0.4,0.1-0.7,0.1-1.1c1.6-0.2,0.8-1.6,1.2-2.5c0.3,0,0.7-0.1,1-0.1c0.2-1.3,1.9-1.9,1.2-3.5
			c1.8-0.2,1-1.6,1.4-2.5c0.3,0,0.7-0.1,1.1-0.1c0-0.4,0.1-0.8,0.1-1.3c1.5-0.2,0.9-1.5,1.2-2.5c0.4,0,0.7-0.1,1.2-0.1
			c0-0.3,0.1-0.7,0.2-1.1c1.1,0.1,1-0.7,1.1-1.5c0.4-0.1,0.7-0.1,1.1-0.1c0.1-0.7,0.2-1.4,0.3-2.2c0.6-0.1,1.4-0.2,0.9-1.3
			c0.6,0,1,0,1.4,0c0.2,0.6,0,1.5,1.1,1.1c0.1,0.8,0.2,1.6,0.4,2.4c0.4,0,0.7,0.1,1.1,0.1c0.1,0.4,0.1,0.8,0.2,1.3
			c0.3,0.1,0.6,0.2,1,0.2c0,0.3,0.1,0.7,0.1,1c0.4,0,0.8,0.1,1.1,0.1c0.5,0.8-0.4,2.3,1.3,2.5c0,0.4,0.1,0.8,0.1,1.3
			c0.4,0,0.8,0.1,1.1,0.1c0.7,0.7-0.5,2.3,1.3,2.5c0.1,0.7,0.2,1.5,0.3,2.3c0.3,0,0.7,0.1,1,0.1c0.1,0.4,0.1,0.7,0.2,1.1
			c0.3,0,0.6,0.1,0.9,0.2c0.1,0.7,0.2,1.5,0.3,2.3c0.4,0,0.7,0.1,1.1,0.1c0.1,0.4,0.1,0.8,0.2,1.2c0.3,0,0.7,0.1,1,0.1
			c0.1,0.8,0.1,1.5,0.2,2.3c0.3,0.1,0.6,0.1,0.9,0.2c0.1,0.8,0.2,1.5,0.3,2.2c0.4,0.1,0.7,0.1,1.1,0.2c0,0.5,0.1,0.9,0.1,1.3
			c0.3,0.1,0.6,0.1,1,0.2c0.1,0.7,0.1,1.4,0.2,2.2c0.4,0.1,0.8,0.1,1.1,0.2c0.5,0.8-0.4,2.2,1.2,2.5c0.1,0.7,0.2,1.5,0.4,2.3
			c0.3,0,0.6,0.1,1,0.2c0.1,0.8,0.2,1.5,0.3,2.3c0.3,0.1,0.6,0.1,0.8,0.2c0.1,0.8,0.2,1.6,0.3,2.4c0.3,0,0.7,0.1,0.9,0.1
			c0.6,0.9-0.5,2.4,1.2,2.7C131.2,64.2,131.3,66.1,131.4,68.1z"/>
	</g>
</g>
</svg>
